<?xml version="1.0" encoding="UTF-8"?>
<svg id="Layer_2" data-name="Layer 2" xmlns="http://www.w3.org/2000/svg" viewBox="0 0 147.57 191.2">
  <defs>
    <style>
      .cls-1 {
        fill: #1851b4;
      }

      .cls-1, .cls-2 {
        stroke-width: 0px;
      }

      .cls-2 {
        fill: #f3c802;
      }
    </style>
  </defs>
  <g id="Swatch_Info_Layer" data-name="Swatch Info Layer">
    <path class="cls-2" d="M147.47,120.83c0,22.29,0,44.58,0,66.87,0,1.07.38,2.6-.51,3.06-.96.5-1.9-.81-2.77-1.42-12.7-8.97-25.39-17.97-38.07-26.98-9.96-7.07-19.9-14.17-29.85-21.25-2.18-1.55-2.82-1.51-5.08.09-8.37,5.92-16.78,11.79-25.13,17.73-10.05,7.14-20.06,14.34-30.09,21.5-4.78,3.41-9.56,6.81-14.35,10.2-.34.24-.65.79-1.18.48-.45-.27-.37-.81-.37-1.27-.01-11.09-.03-22.18-.02-33.26,0-1.27.49-2.33,1.59-3.1,10.78-7.61,21.55-15.23,32.33-22.84,12.48-8.81,24.96-17.61,37.45-26.4,1.81-1.27,3.08-1.28,4.9.01,9.69,6.88,19.36,13.78,29.06,20.65,3.15,2.23,6.31,4.46,9.53,6.6,2.25,1.49,2.56,1.27,2.62-1.51.03-1.67.05-3.35.05-5.02,0-15.82-.06-31.65,0-47.47.04-8.14-.06-5.94,5.54-10.09,6.06-4.49,12.27-8.79,18.42-13.17,1.5-1.07,3.05-2.07,4.56-3.12,1.01-.71,1.35-.26,1.36.76.01,2.14,0,4.27,0,6.41,0,20.85,0,41.69,0,62.54h.03Z"/>
    <path class="cls-1" d="M0,70.41C0,47.6,0,24.78,0,1.97,0,1.74,0,1.51,0,1.28.03.83-.13.26.38.04c.42-.18.7.28,1.02.5,14.31,10.15,28.62,20.29,42.92,30.44,9.08,6.45,18.16,12.88,27.19,19.39,1.67,1.2,2.97.93,4.5-.17,9.65-6.92,19.34-13.81,29.02-20.69,13.35-9.49,26.72-18.96,40.08-28.44.28-.2.6-.35.87-.56,1.1-.84,1.54-.46,1.54.81,0,1.91.04,3.81.04,5.72,0,8.72-.06,17.44,0,26.16.02,2.25-.82,3.79-2.64,5.08-14.56,10.25-29.09,20.55-43.62,30.84-8.18,5.8-16.35,11.62-24.51,17.44-2.77,1.97-3.18,2.08-5.95.13-12.52-8.82-25.01-17.7-37.51-26.55-.87-.62-1.78-1.81-2.81-1.36-1.09.48-.63,1.96-.63,2.99,0,17.84,0,35.69.13,53.53.02,3.13-.96,5.26-3.6,7.07-8.5,5.82-16.85,11.85-25.24,17.82-1.01.72-1.16.22-1.17-.65,0-2.02,0-4.04,0-6.06,0-21.02,0-42.04,0-63.06H0Z"/>
  </g>
</svg>